<svg width="80" height="61" viewBox="0 0 80 61" fill="none" xmlns="http://www.w3.org/2000/svg">
<path d="M19.5 51.5L1.50003 39.5C0.333361 37.1666 -0.299973 32.9 6.50003 34.5C13.3 36.1 20 41.5 22.5 44C19.5 41 13.9 32 15.5 20C17.5 4.99999 32.5 1.49999 31.5 1.49999C38 -1.35303e-05 52.4 -0.700013 58 8.49999C63.6 17.7 64 19 63.5 18.5C64.6667 24.6667 64.8 38.7 56 45.5L71.5 34.5C75.1667 33 81.4 31.5 77 37.5C74 41.5 67.1 49.7 63.5 50.5M36.5 24.5C37.8333 26.8333 40.5 30.1 40.5 24.5M28.5 21.5C28 21.6667 27.1 21.7 27.5 20.5C27.9 19.3 28.3333 20 28.5 20.5M48.5 18.5C48 19 47.5 20 49.5 20M39.5 48.5C36.3333 46 30.5 43.3 32.5 52.5C33.8333 55.1667 37.1 60.5 39.5 60.5C41.9 60.5 45.8333 55.1667 47.5 52.5C49 47.6667 49.5 40.1 39.5 48.5Z" stroke="black"/>
</svg>
